<svg xmlns="http://www.w3.org/2000/svg" viewBox="0 0 180 180">
  <defs>
    <linearGradient id="grad" x1="0%" y1="0%" x2="100%" y2="100%">
      <stop offset="0%" style="stop-color:#3b82f6;stop-opacity:1" />
      <stop offset="100%" style="stop-color:#8b5cf6;stop-opacity:1" />
    </linearGradient>
  </defs>
  <rect width="180" height="180" rx="40" fill="url(#grad)"/>
  <path d="M45 65 L70 65 L70 55 C70 50 74 46 79 46 L101 46 C106 46 110 50 110 55 L110 65 L135 65 L135 85 L115 85 L115 125 C115 130 111 134 106 134 L74 134 C69 134 65 130 65 125 L65 85 L45 85 Z M90 72 L100 72 L100 100 L90 100 Z" fill="white" opacity="0.95"/>
  <circle cx="90" cy="100" r="6" fill="#22c55e"/>
</svg>
